<?xml version="1.0" encoding="utf-8"?>
<!-- Generator: Adobe Illustrator 26.0.0, SVG Export Plug-In . SVG Version: 6.00 Build 0)  -->
<svg version="1.1" id="Layer_1" xmlns="http://www.w3.org/2000/svg" xmlns:xlink="http://www.w3.org/1999/xlink" x="0px" y="0px"
	 viewBox="0 0 102.6 126.6" style="enable-background:new 0 0 102.6 126.6;" xml:space="preserve">
<style type="text/css">
	.st0{stroke:#000000;stroke-miterlimit:10;}
</style>
<g>
	<path class="st0" d="M64.6,104c-3.6,1.1-7.4,2.1-11.5,3V92.1c18.2-1.2,41.1-5.3,49.4-17.9C102.7,77.1,101.4,92.9,64.6,104z
		 M99.5,73.2H53.2v15.9C82.4,87.3,94.6,80.1,99.5,73.2z M102.6,83.5c-0.7,1.2-1.5,2.5-2.6,3.8c-6.4,7.9-18,14.5-34.5,19.4
		c-3.8,1.1-7.9,2.2-12.3,3.2v16.7c48.3-15.3,49.4-37.6,49.4-42.3C102.6,84.3,102.6,83.5,102.6,83.5z"/>
	<path class="st0" d="M0,73.2v11.1c-0.1,4.7,1.1,27,49.4,42.3V73.2H0z M38.3,107.6l-8.7-4.6l-8.7,4.6l1.7-9.8l-7.4-8.4h10.2l4.3-8.7
		l4.3,8.7h10l-2.5,2.9h-3.8l0,0h-5.5l-2.5-5.1l-2.5,5.1h-5.6l4.1,4.6l-0.9,5.4l4.9-2.6l4.9,2.6l-0.9-5.4l1.5-1.8H39l-2.3,2.6
		L38.3,107.6z"/>
	<path class="st0" d="M102.6,0v69.4H53.2V11.3L102.6,0z M91.9,45H64v2.9h27.9V45z M91.9,55.5H64v2.9h27.9V55.5z M91.9,34.6H64v2.9
		h27.9V34.6z M91.9,24.1H64V27h27.9V24.1z"/>
	<path class="st0" d="M49.4,8.5l-35.6,8.1L49.4,0V8.5z M0,23.3v46.1h49.4V12.1L0,23.3z M38.8,49.9v11.3h-2.5H36v-6.4l-5,3.1
		l-6.2-4.4l-6.1,4.4l-5.1-3.1v6.4h-0.3h-2.5V50l7.8,4.7l6.2-4.4l6.3,4.5L38.8,49.9z M13.6,37.1l-2.8-1.7V27l7.8,4.7l6.2-4.4l6.3,4.5
		l7.8-4.8v8.5L36,37v-5.3l-5,3.1l-6.2-4.4l-6.1,4.4l-5.1-3.1C13.6,31.7,13.6,37.1,13.6,37.1z M13.6,48.7L10.8,47v-8.4l7.8,4.7
		l6.2-4.4l6.3,4.5l7.8-4.9V47L36,48.6v-5.3l-5,3.1L24.8,42l-6.1,4.4l-5.1-3.1C13.6,43.3,13.6,48.7,13.6,48.7z"/>
</g>
</svg>
